<?xml version="1.0" encoding="UTF-8"?>
<!DOCTYPE svg PUBLIC "-//W3C//DTD SVG 1.1//EN" "http://www.w3.org/Graphics/SVG/1.1/DTD/svg11.dtd">
<!-- Creator: CorelDRAW -->
<svg xmlns="http://www.w3.org/2000/svg" xml:space="preserve" width="3.93701in" height="4.72441in" version="1.1" style="shape-rendering:geometricPrecision; text-rendering:geometricPrecision; image-rendering:optimizeQuality; fill-rule:evenodd; clip-rule:evenodd"
viewBox="0 0 3937.01 4724.41"
 xmlns:xlink="http://www.w3.org/1999/xlink"
 xmlns:xodm="http://www.corel.com/coreldraw/odm/2003">
 <defs>
  <style type="text/css">
   <![CDATA[
    .fil2 {fill:#96989A;fill-rule:nonzero}
    .fil0 {fill:#848688;fill-rule:nonzero}
    .fil4 {fill:#ED3237;fill-rule:nonzero}
    .fil1 {fill:#434A54;fill-rule:nonzero}
    .fil3 {fill:#FFCE54;fill-rule:nonzero}
   ]]>
  </style>
 </defs>
 <g id="Layer_x0020_1">
  <metadata id="CorelCorpID_0Corel-Layer"/>
  <g id="_2060196093632">
   <path class="fil0" d="M3835.58 0.21l-3739.91 0c-54.36,0 -98.47,44.04 -98.47,98.4l0 4527.53c0,54.36 44.11,98.48 98.47,98.48l3739.91 -0c54.5,0 98.63,-44.12 98.63,-98.48l-0 -4527.53c-0.01,-54.36 -44.13,-98.39 -98.62,-98.39z"/>
   <g>
    <path class="fil1" d="M3540.31 689.15c-54.21,0 -98.33,44.04 -98.33,98.4l0 590.56c0,54.36 44.12,98.4 98.33,98.4 54.48,0 98.6,-44.04 98.6,-98.4l0 -590.56c0,-54.35 -44.11,-98.4 -98.6,-98.4z"/>
    <path class="fil1" d="M3540.31 3149.75c-54.21,0 -98.33,44.12 -98.33,98.48l0 590.56c0,54.35 44.12,98.32 98.33,98.32 54.48,0 98.6,-43.98 98.6,-98.32l0 -590.56c0,-54.36 -44.11,-98.48 -98.6,-98.48z"/>
   </g>
   <rect class="fil2" x="390.94" y="393.88" width="3149.4" height="3937"/>
   <path class="fil3" d="M3035.7 2999.23l-984.05 -1767.39c-17.37,-31.22 -50.32,-50.61 -86,-50.61 -35.68,0 -68.63,19.4 -86,50.61l-986.29 1771.57c-17.02,30.56 -16.58,67.77 1.15,97.76 17.66,30.14 49.96,48.59 84.84,48.59l1972.7 -0 0 0c54.5,0 98.33,-44.12 98.33,-98.48 0.01,-19.04 -5.47,-36.92 -14.69,-52.05z"/>
   <path class="fil1" d="M1965.51 2854.48c-14.78,0 -29.84,-3.31 -43.98,-10.38 -48.59,-24.37 -68.26,-83.48 -43.98,-132.07l125.65 -251.31 -234.43 0.15c-34.09,0 -65.74,-17.74 -83.69,-46.71 -17.94,-29.05 -19.53,-65.3 -4.33,-95.8l196.87 -393.68c24.3,-48.66 83.41,-68.34 132.06,-44.05 48.59,24.3 68.34,83.41 43.98,132.07l-125.57 251.22 234.5 0c34.02,0 65.74,17.66 83.62,46.71 17.88,28.99 19.61,65.23 4.33,95.73l-196.94 393.76c-17.23,34.47 -51.97,54.36 -88.09,54.36z"/>
   <path class="fil4" d="M2654.51 3740.3l-1377.79 0c-54.35,0 -98.47,-44.12 -98.47,-98.48 0,-54.35 44.12,-98.32 98.47,-98.32l1377.79 -0c54.5,0 98.62,43.98 98.62,98.32 -0,54.36 -44.12,98.48 -98.62,98.48z"/>
  </g>
 </g>
</svg>
